# xmcd
#
# Track frame offsets:
# 150
# 13245
# 27341
# 43355
# 58472
# 61514
# 81697
# 100987
# 115106
# 116124
# 129928
# 132996
# 134202
# 142328
# 144857
# 160624
# 179414
# 197601
# 199089
#
# Disc length: 2719 seconds
#
#
# Revision: 0
# Processed by: cddbd v1.5.1PL2 Copyright (c) Steve Scherf et al.
# Submitted via: FreeRIP 2.942 
#
DISCID=290a9d13
DTITLE=Aesop the Original Legend - Black Libra
DYEAR=2002
DGENRE=Hip-Hop
TTITLE0=Intro
TTITLE1=Hit List
TTITLE2=U Must Provoke Things
TTITLE3=He's so Fresh!!!
TTITLE4=Just Listen (interlude)
TTITLE5=Love Your Life
TTITLE6=For You
TTITLE7=Do the Damn Thing
TTITLE8=The Song is Good (skit)
TTITLE9=U Can Feel This
TTITLE10=Listen Again (interlude)
TTITLE11=Secret Service (skit)
TTITLE12=Broke Citizens
TTITLE13=The Truth (skit)
TTITLE14=All I Want to See
TTITLE15=Give em What They Want f. Basik and Grouch
TTITLE16=Come on Girl (Dance if You Want)
TTITLE17=Final Destination (skit)
TTITLE18=Outro
EXTD=
EXTT0=
EXTT1=
EXTT2=
EXTT3=
EXTT4=
EXTT5=
EXTT6=
EXTT7=
EXTT8=
EXTT9=
EXTT10=
EXTT11=
EXTT12=
EXTT13=
EXTT14=
EXTT15=
EXTT16=
EXTT17=
EXTT18=
PLAYORDER=
